/* XPM */
static char * at_xpm[] = {
"21 14 4 1",
" 	c None",
".	c #FF0000",
"+	c #C0C0C0",
"@	c #FFFFFF",
"....................+",
"....................+",
"....................+",
"....................+",
"@@@@@@@@@@@@@@@@@@@@+",
"@@@@@@@@@@@@@@@@@@@@+",
"@@@@@@@@@@@@@@@@@@@@+",
"@@@@@@@@@@@@@@@@@@@@+",
"....................+",
"....................+",
"....................+",
"....................+",
"+++++++++++++++++++++",
"+++++++++++++++++++++"};
