/* XPM */
static char * city_xpm[] = {
"16 16 8 1",
" 	c None",
".	c #FF0000",
"+	c #BE0000",
"@	c #800000",
"#	c #808080",
"$	c #A0A0A0",
"%	c #000000",
"&	c #C3C3C3",
"         .      ",
"        .+@     ",
"       .+#+@    ",
"    . .+###+@   ",
"   .+@@#####+@  ",
"  .+$+@###.#%   ",
" .+$$$+@#.+@%   ",
".+$$$$$+.+&+@   ",
" %$$$$$.+&&&+@  ",
" %$$$$.+&&&&&+@ ",
" %$$$.+&&&&&&&+@",
" %$$$$%&&&&&&&% ",
" %%%%%%&&&&&&&% ",
"      %&&&&&&&% ",
"      %&&&&&&&% ",
"      %%%%%%%%% "};
