/* XPM */
static char * de_xpm[] = {
"21 14 5 1",
" 	c None",
".	c #000000",
"+	c #C0C0C0",
"@	c #FF0000",
"#	c #FFFF00",
"....................+",
"....................+",
"....................+",
"....................+",
"@@@@@@@@@@@@@@@@@@@@+",
"@@@@@@@@@@@@@@@@@@@@+",
"@@@@@@@@@@@@@@@@@@@@+",
"@@@@@@@@@@@@@@@@@@@@+",
"####################+",
"####################+",
"####################+",
"####################+",
"+++++++++++++++++++++",
"+++++++++++++++++++++"};
