/* XPM */
static char * dsl_xpm[] = {
"16 16 7 1",
" 	c None",
".	c #FF0000",
"+	c #0000FF",
"@	c #000000",
"#	c #EFF3EF",
"$	c #C7C7C7",
"%	c #969A96",
"    .           ",
"......     ++   ",
"......  ++ ++ ++",
"    .   ++ ++ ++",
" .      ++ ++ ++",
"......  ++ ++ ++",
"......          ",
" .     @@@      ",
"     @@###@@    ",
"   @@#######@@  ",
" @@#######$$%@  ",
" @.$$###$$%%%@  ",
" @...$$$%%%%@@  ",
" @@...%%%%@@    ",
"   @@.%%@@      ",
"     @@@        "};
