/* XPM */
static char * irda_16_xpm[] = {
"16 16 22 1",
" 	c None",
".	c #000000",
"+	c #2F2F2F",
"@	c #FFFFFF",
"#	c #B7B7B7",
"$	c #EAE8E3",
"%	c #F4F2F1",
"&	c #A9A9A9",
"*	c #C1BFBB",
"=	c #FDFCFC",
"-	c #D5D5D5",
";	c #828282",
">	c #6E6D6A",
",	c #7A7977",
"'	c #71706E",
")	c #464644",
"!	c #D4D3CE",
"~	c #B0AEAA",
"{	c #7C7B79",
"]	c #AEADAA",
"^	c #5A5A5A",
"/	c #6B6B6B",
"         ..     ",
"        +@@#.   ",
"       .$%@@@&. ",
"       .$*$=-;. ",
"       .$>,$;;. ",
"       .$')$;;. ",
"       .!~{$;;. ",
"...     .]!$;^. ",
"   ..    ..!/.  ",
"     .     ..   ",
"..    .         ",
"  ..   .        ",
"    .  .        ",
"..  .   .       ",
"  .  .  .       ",
"  .  .  .       "};
