/* XPM */
static char *isdn[]={
"16 16 12 1",
". c None",
"e c #000000",
"g c #0000ff",
"b c #008000",
"a c #00c000",
"# c #303030",
"d c #585858",
"h c #800000",
"c c #a0a0a4",
"f c #c0c0ff",
"i c #ff8000",
"j c #ffffc0",
"................",
"................",
"................",
"################",
"#aaaaaaaaaaaaaa#",
"#abcccbbbcccccb#",
"#abcdebbbcdddeb#",
"#abeeebbbeeeeeb#",
"#abcbcbfbbbcbbb#",
"#abcbccgbhicccb#",
"#abcbbbbbbbbbbb#",
"##bjbjbjbjbjbjb#",
".#bjbjbjbjbjbjb#",
".###############",
"................",
"................"};
