/* XPM */
static char * isp_xpm[] = {
"16 16 10 1",
" 	c None",
".	c #000000",
"+	c #C0C0C0",
"@	c #0000FF",
"#	c #C0C0FF",
"$	c #808080",
"%	c #585858",
"&	c #FFFFFF",
"*	c #008080",
"=	c #A0A0A4",
" ..             ",
".++..    .      ",
".@#$.   .+..    ",
".@#%   .++++..  ",
" .#$. .+++++++..",
".+&$..++&+++++$.",
" ... .+*.+&++$$.",
"     .+***.+$$$.",
" ..  .+****&$$$.",
".++...+&***&$$$.",
".#+$..%%+&*&$$% ",
".@#$..++%%+&$%$.",
".##....++%%.%$$.",
"+&.$.  ..=&%$$. ",
".++%.    ..+$.  ",
" ...       ..   "};
