/* XPM */
static char * keys_xpm[] = {
"32 32 7 1",
" 	c None",
".	c #000000",
"+	c #808080",
"@	c #FFFFFF",
"#	c #C3C3C3",
"$	c #808000",
"%	c #FFFF00",
"        .....                   ",
"       .+   +.                  ",
"    +++.+++ ++++.               ",
"   +@@@.+#+.####$..             ",
"  +@##...#++...%%$$.            ",
" +@##.++.+%..+ .%%#$.           ",
"+@##@.+#+%%.. #.%%%#$.          ",
"+@###.+@+%%. ##.%.%#$.          ",
"+@##@#..+%%%++.%.%.%#$.         ",
"+@###@#++%%%%%%.%.%#%$.         ",
"+@##@#+@+%%%%%.%.%#%#$.         ",
" +@##@+@.%%%%.%.%#%#%$.         ",
"  +@##+@#.%%%%#%#%#%#$.         ",
"   +@#+@#.+%%%%%%%%#%$.         ",
"    +@+@##.++%%%%%%%+.$.        ",
"     +@+@##..++++++%%+.$.       ",
"     +@#+@##@......%%%+.$.      ",
"    +@##++@##@##+. .%%%+.$.     ",
"    +@##+#+@##@+.   +%%%+.$.    ",
"     .+#+#.+@#++.   +%%%%+.$.   ",
"      .#+#.+@#+#.    +$$%%+.$.  ",
"     +@#+#+@##+#.     +..%%+.$. ",
"    +@##+#+@##+#.       +%%%+.$.",
"     .+#+#..+#+#.       +$$%%+..",
"      .#+#. .#+#.        +..%%+.",
"     +@#+#.+@#+#.          +%$$.",
"     +@#+#+@##+#.           +.. ",
"     ++###..+#+#.               ",
"      .##..+.#+#.               ",
"       ..  .@#+#.               ",
"            .##.                ",
"             ..                 "};
