/* XPM */
static char * no_xpm[] = {
"21 14 5 1",
" 	c None",
".	c #000080",
"+	c #C0C0C0",
"@	c #FF0000",
"#	c #FFFFFF",
"@@@@@#..#@@@@@@@@@@@+",
"@@@@@#..#@@@@@@@@@@@+",
"@@@@@#..#@@@@@@@@@@@+",
"@@@@@#..#@@@@@@@@@@@+",
"######..############+",
"....................+",
"....................+",
"######..############+",
"@@@@@#..#@@@@@@@@@@@+",
"@@@@@#..#@@@@@@@@@@@+",
"@@@@@#..#@@@@@@@@@@@+",
"@@@@@#..#@@@@@@@@@@@+",
"+++++++++++++++++++++",
"+++++++++++++++++++++"};
