/* XPM */
static char * connect_established_xpm[] = {
"16 16 10 1",
" 	c None",
".	c #FFFFFF",
"+	c #000000",
"@	c #DCDCDC",
"#	c #FFFFFF",
"$	c #A0A0A0",
"%	c #C3C3C3",
"&	c #808080",
"*	c #585858",
"=	c #303030",
"             +#$",
"      +++   +#$+",
"     +###+ +#$+ ",
"    +#@@@#+#$+  ",
"   +++$@@@#=+   ",
"  +#%++$@@@#=   ",
" +#@@%+=$@@@#+  ",
"+&%@@@%++$@@%+  ",
"+*&%@@@%+=$%&+  ",
"+**&%@@@%++&*+  ",
" +*%&%@@%$+*+   ",
"  +#$&%@$&++    ",
" +#$&*&$&*+     ",
"+#$++*&&*+      ",
"#$+  +**+       ",
"$+    ++        "};
