/* XPM */
static char *si_xpm[] = {
"    21    14        6            1",
". c #000099",
"# c #0000aa",
"a c #330099",
"b c #6666cc",
"c c #ff0000",
"d c #ffffff",
"ddddddddddddddddddddd",
"ddddddddddddddddddddd",
"ddd..bddddddddddddddd",
"dd....ddddddddddddddd",
"dd....ddddddddddddddd",
"..addd...............",
"...d##...............",
"....c................",
".....................",
".....................",
"ccccccccccccccccccccc",
"ccccccccccccccccccccc",
"ccccccccccccccccccccc",
"ccccccccccccccccccccc"
};
