/* XPM */
static char * us_xpm[] = {
"21 14 4 1",
" 	c None",
".	c #000080",
"+	c #FF0000",
"@	c #FFFFFF",
".........++++++++++++",
".@.@.@.@.@@@@@@@@@@@@",
"..@.@.@..++++++++++++",
".@.@.@.@.@@@@@@@@@@@@",
"..@.@.@..++++++++++++",
".@.@.@.@.@@@@@@@@@@@@",
".........++++++++++++",
"@@@@@@@@@@@@@@@@@@@@@",
"+++++++++++++++++++++",
"@@@@@@@@@@@@@@@@@@@@@",
"+++++++++++++++++++++",
"@@@@@@@@@@@@@@@@@@@@@",
"+++++++++++++++++++++",
"@@@@@@@@@@@@@@@@@@@@@"};
