<?xml version="1.0" encoding="UTF-8" standalone="no"?>
<!-- Created with Inkscape (http://www.inkscape.org/) -->

<svg
   xmlns:dc="http://purl.org/dc/elements/1.1/"
   xmlns:cc="http://creativecommons.org/ns#"
   xmlns:rdf="http://www.w3.org/1999/02/22-rdf-syntax-ns#"
   xmlns:svg="http://www.w3.org/2000/svg"
   xmlns="http://www.w3.org/2000/svg"
   xmlns:xlink="http://www.w3.org/1999/xlink"
   xmlns:sodipodi="http://sodipodi.sourceforge.net/DTD/sodipodi-0.dtd"
   xmlns:inkscape="http://www.inkscape.org/namespaces/inkscape"
   width="48"
   height="48"
   id="svg2"
   sodipodi:version="0.32"
   inkscape:version="0.46+devel"
   version="1.0"
   sodipodi:docname="folder-videos.svg"
   inkscape:export-filename="/home/lapo/Desktop/mist-wip.png"
   inkscape:export-xdpi="90"
   inkscape:export-ydpi="90"
   inkscape:output_extension="org.inkscape.output.svg.inkscape">
  <sodipodi:namedview
     inkscape:window-height="979"
     inkscape:window-width="1400"
     inkscape:pageshadow="2"
     inkscape:pageopacity="0.0"
     guidetolerance="10.0"
     gridtolerance="10.0"
     objecttolerance="10.0"
     borderopacity="1.0"
     bordercolor="#666666"
     pagecolor="#ffffff"
     id="base"
     showgrid="false"
     showguides="true"
     inkscape:guide-bbox="true"
     inkscape:showpageshadow="false"
     showborder="true"
     inkscape:zoom="1"
     inkscape:cx="1.1185611"
     inkscape:cy="-108.8448"
     inkscape:window-x="0"
     inkscape:window-y="25"
     inkscape:current-layer="layer2"
     inkscape:grid-bbox="true"
     inkscape:grid-points="false"
     inkscape:window-maximized="1" />
  <sodipodi:namedview
     id="namedview389"
     pagecolor="#ffffff"
     bordercolor="#666666"
     borderopacity="1.0"
     inkscape:pageopacity="0.0"
     inkscape:pageshadow="2"
     inkscape:zoom="1"
     inkscape:cx="10.097903"
     inkscape:cy="38.917761"
     inkscape:document-units="px"
     inkscape:current-layer="layer1"
     showgrid="false"
     inkscape:window-width="965"
     inkscape:window-height="763"
     inkscape:window-x="176"
     inkscape:window-y="103"
     fill="#729fcf"
     stroke="#3465a4"
     inkscape:showpageshadow="false"
     showguides="false"
     inkscape:guide-bbox="true"
     inkscape:grid-points="true"
     inkscape:grid-bbox="false"
     showborder="true">
    <sodipodi:guide
       id="guide1887"
       position="2.9484029"
       orientation="vertical" />
    <sodipodi:guide
       id="guide1891"
       position="41.985258"
       orientation="horizontal" />
    <sodipodi:guide
       id="guide1893"
       position="6.958231"
       orientation="horizontal" />
    <inkscape:grid
       empspacing="2"
       empopacity="0.4"
       opacity="0.2"
       empcolor="#0000ff"
       color="#0000ff"
       spacingy="0.5px"
       spacingx="0.5px"
       originy="0px"
       originx="0px"
       type="xygrid"
       id="GridFromPre046Settings" />
    <sodipodi:guide
       id="guide2191"
       position="24.041631"
       orientation="vertical" />
    <sodipodi:guide
       id="guide2203"
       position="25.986174"
       orientation="horizontal" />
    <inkscape:grid
       empspacing="2"
       empopacity="0.4"
       opacity="0.2"
       empcolor="#0000ff"
       color="#0000ff"
       spacingy="0.5px"
       spacingx="0.5px"
       originy="0px"
       originx="0px"
       type="xygrid"
       id="grid10239" />
  </sodipodi:namedview>
  <defs
     id="defs4">
    <linearGradient
       id="linearGradient4717">
      <stop
         style="stop-color:#90b2d9;stop-opacity:1"
         offset="0"
         id="stop4719" />
      <stop
         style="stop-color:#3465a4;stop-opacity:1"
         offset="1"
         id="stop4721" />
    </linearGradient>
    <linearGradient
       id="linearGradient4711">
      <stop
         style="stop-color:#8fb3d9;stop-opacity:1"
         offset="0"
         id="stop4713" />
      <stop
         style="stop-color:#729fcf;stop-opacity:1"
         offset="1"
         id="stop4715" />
    </linearGradient>
    <linearGradient
       id="linearGradient4676">
      <stop
         style="stop-color:black;stop-opacity:0;"
         offset="0"
         id="stop4678" />
      <stop
         id="stop4682"
         offset="0.5"
         style="stop-color:black;stop-opacity:1;" />
      <stop
         style="stop-color:black;stop-opacity:0;"
         offset="1"
         id="stop4680" />
    </linearGradient>
    <linearGradient
       id="linearGradient4656"
       inkscape:collect="always">
      <stop
         id="stop4658"
         offset="0"
         style="stop-color:black;stop-opacity:1;" />
      <stop
         id="stop4660"
         offset="1"
         style="stop-color:black;stop-opacity:0;" />
    </linearGradient>
    <linearGradient
       id="linearGradient4602"
       inkscape:collect="always">
      <stop
         id="stop4604"
         offset="0"
         style="stop-color:white;stop-opacity:1;" />
      <stop
         id="stop4606"
         offset="1"
         style="stop-color:white;stop-opacity:0;" />
    </linearGradient>
    <linearGradient
       id="linearGradient4594">
      <stop
         id="stop4596"
         offset="0"
         style="stop-color:white;stop-opacity:1;" />
      <stop
         id="stop4598"
         offset="1"
         style="stop-color:white;stop-opacity:0.3984375" />
    </linearGradient>
    <linearGradient
       inkscape:collect="always"
       id="linearGradient5841">
      <stop
         style="stop-color:#ffffff;stop-opacity:1;"
         offset="0"
         id="stop5843" />
      <stop
         style="stop-color:#ffffff;stop-opacity:0;"
         offset="1"
         id="stop5845" />
    </linearGradient>
    <linearGradient
       inkscape:collect="always"
       id="linearGradient4457">
      <stop
         style="stop-color:#cc0000"
         offset="0"
         id="stop4459" />
      <stop
         style="stop-color:#ef2929"
         offset="1"
         id="stop4461" />
    </linearGradient>
    <linearGradient
       id="linearGradient3524">
      <stop
         id="stop5270"
         offset="0"
         style="stop-color:#729fcf;stop-opacity:0;" />
      <stop
         style="stop-color:#729fcf;stop-opacity:0;"
         offset="0.85000002"
         id="stop5272" />
      <stop
         id="stop3528"
         offset="1"
         style="stop-color:#729fcf;stop-opacity:1;" />
    </linearGradient>
    <linearGradient
       inkscape:collect="always"
       xlink:href="#linearGradient5841"
       id="linearGradient11408"
       gradientUnits="userSpaceOnUse"
       x1="25.84375"
       y1="27.124889"
       x2="25.84375"
       y2="45" />
    <radialGradient
       inkscape:collect="always"
       xlink:href="#linearGradient3524"
       id="radialGradient11410"
       gradientUnits="userSpaceOnUse"
       cx="9.375"
       cy="9.375"
       fx="9.375"
       fy="9.375"
       r="9.375" />
    <radialGradient
       inkscape:collect="always"
       xlink:href="#linearGradient3524"
       id="radialGradient11412"
       gradientUnits="userSpaceOnUse"
       cx="9.375"
       cy="9.375"
       fx="9.375"
       fy="9.375"
       r="9.375" />
    <radialGradient
       inkscape:collect="always"
       xlink:href="#linearGradient3524"
       id="radialGradient11414"
       gradientUnits="userSpaceOnUse"
       cx="9.375"
       cy="9.375"
       fx="9.375"
       fy="9.375"
       r="9.375" />
    <linearGradient
       inkscape:collect="always"
       xlink:href="#linearGradient4457"
       id="linearGradient11416"
       gradientUnits="userSpaceOnUse"
       gradientTransform="translate(-1,-1)"
       x1="28.976408"
       y1="31.069963"
       x2="29"
       y2="40.00526" />
    <linearGradient
       inkscape:collect="always"
       xlink:href="#linearGradient4457"
       id="linearGradient11418"
       gradientUnits="userSpaceOnUse"
       gradientTransform="translate(-146.33555,-258.02055)"
       x1="28.976408"
       y1="31.069963"
       x2="29"
       y2="40.00526" />
    <linearGradient
       inkscape:collect="always"
       xlink:href="#linearGradient4457"
       id="linearGradient11420"
       gradientUnits="userSpaceOnUse"
       gradientTransform="matrix(0.750053,0,0,0.750052,49.87293,11.12351)"
       x1="28.976408"
       y1="31.069963"
       x2="29"
       y2="40.00526" />
    <radialGradient
       inkscape:collect="always"
       xlink:href="#linearGradient4656"
       id="radialGradient3459"
       gradientUnits="userSpaceOnUse"
       gradientTransform="matrix(1.5,0,0,1,0,2.324581e-6)"
       cx="4"
       cy="39"
       fx="4"
       fy="39"
       r="4" />
    <linearGradient
       inkscape:collect="always"
       xlink:href="#linearGradient4676"
       id="linearGradient3461"
       gradientUnits="userSpaceOnUse"
       x1="19.533825"
       y1="34.998901"
       x2="19.533825"
       y2="43.004372" />
    <radialGradient
       inkscape:collect="always"
       xlink:href="#linearGradient4656"
       id="radialGradient3463"
       gradientUnits="userSpaceOnUse"
       gradientTransform="matrix(1.5,0,0,1,-48,-78)"
       cx="4"
       cy="39"
       fx="4"
       fy="39"
       r="4" />
    <linearGradient
       inkscape:collect="always"
       xlink:href="#linearGradient4717"
       id="linearGradient3465"
       gradientUnits="userSpaceOnUse"
       gradientTransform="translate(0,166)"
       x1="13.435029"
       y1="8.2836676"
       x2="13.435029"
       y2="15.2117" />
    <linearGradient
       inkscape:collect="always"
       xlink:href="#linearGradient4602"
       id="linearGradient3467"
       gradientUnits="userSpaceOnUse"
       x1="16.75"
       y1="9.649169"
       x2="16.75"
       y2="14.96457" />
    <linearGradient
       inkscape:collect="always"
       xlink:href="#linearGradient4711"
       id="linearGradient3469"
       gradientUnits="userSpaceOnUse"
       gradientTransform="translate(0,166)"
       x1="40.75"
       y1="24.998657"
       x2="40.75"
       y2="39.300896" />
    <linearGradient
       inkscape:collect="always"
       xlink:href="#linearGradient4594"
       id="linearGradient3471"
       gradientUnits="userSpaceOnUse"
       x1="18.75"
       y1="14.171447"
       x2="18.75"
       y2="37.452229" />
  </defs>
  <metadata
     id="metadata7">
    <rdf:RDF>
      <cc:Work
         rdf:about="">
        <dc:format>image/svg+xml</dc:format>
        <dc:type
           rdf:resource="http://purl.org/dc/dcmitype/StillImage" />
        <dc:creator>
          <cc:Agent>
            <dc:title>Lapo Calamandrei</dc:title>
          </cc:Agent>
        </dc:creator>
        <dc:title />
        <dc:subject>
          <rdf:Bag />
        </dc:subject>
        <cc:license
           rdf:resource="http://creativecommons.org/licenses/GPL/2.0/" />
        <dc:date>Aug 2006</dc:date>
      </cc:Work>
      <cc:License
         rdf:about="http://creativecommons.org/licenses/GPL/2.0/">
        <cc:permits
           rdf:resource="http://web.resource.org/cc/Reproduction" />
        <cc:permits
           rdf:resource="http://web.resource.org/cc/Distribution" />
        <cc:requires
           rdf:resource="http://web.resource.org/cc/Notice" />
        <cc:permits
           rdf:resource="http://web.resource.org/cc/DerivativeWorks" />
        <cc:requires
           rdf:resource="http://web.resource.org/cc/ShareAlike" />
        <cc:requires
           rdf:resource="http://web.resource.org/cc/SourceCode" />
      </cc:License>
    </rdf:RDF>
  </metadata>
  <g
     style="display:inline"
     inkscape:label="Vectors"
     id="layer2"
     inkscape:groupmode="layer">
    <g
       transform="translate(202.8133,-0.04502)"
       style="display:inline"
       inkscape:label="pixmap"
       id="g5003" />
    <g
       id="g891"
       transform="matrix(0.186703,0,0,0.186703,181.706,57.57797)" />
    <g
       transform="translate(1.4995847,60.430461)"
       id="layer1"
       inkscape:label="Base"
       style="display:inline" />
    <g
       transform="translate(1.4995847,60.430461)"
       style="display:inline"
       inkscape:label="Text"
       id="layer5" />
    <path
       transform="matrix(0.50347755,0,0,0.5013988,59.284011,284.77708)"
       d="m 67.03125,308.6875 c -0.727351,0 -1.334888,0.10771 -1.59375,0.21875 -0.258862,0.11104 -0.153127,-0.0199 -0.15625,0.125 a 1.16433,1.16433 0 0 1 -1.15625,1.125 l -2.0625,0 0,11.28125 9.71875,0 8.15625,0 0,-11.28125 -8.15625,0 -1.96875,0 a 1.16433,1.16433 0 0 1 -1.03125,-0.625 c -0.147933,-0.28973 -0.887517,-0.84375 -1.75,-0.84375 z"
       inkscape:href="#rect4783"
       id="path5837"
       style="opacity:0.37058824;color:#000000;fill:none;stroke:url(#linearGradient11408);stroke-width:1.99029887;stroke-linecap:butt;stroke-linejoin:miter;stroke-miterlimit:10;stroke-opacity:1;stroke-dasharray:none;stroke-dashoffset:0;marker:none;visibility:visible;display:inline;overflow:visible;enable-background:accumulate"
       xlink:href="#rect4783"
       inkscape:original="M 67.03125 307.53125 C 65.420794 307.53125 64.149696 307.85443 64.125 309 L 61.78125 309 C 61.304091 309 60.90625 309.37896 60.90625 309.84375 L 60.90625 321.75 C 60.90625 322.21479 61.304092 322.59375 61.78125 322.59375 L 61.90625 322.59375 L 71.78125 322.59375 L 80.25 322.59375 C 80.727158 322.59375 81.09375 322.21479 81.09375 321.75 L 81.09375 309.84375 C 81.09375 309.37896 80.727159 309 80.25 309 L 71.78125 309 L 69.8125 309 C 69.39984 308.19179 68.29834 307.53125 67.03125 307.53125 z "
       inkscape:radius="-1.1642135"
       sodipodi:type="inkscape:offset" />
    <g
       transform="translate(85.11761,22.8371)"
       style="opacity:0.30632181"
       id="g3238" />
    <g
       transform="translate(77.11761,118.5246)"
       id="g3374" />
    <rect
       style="color:#000000;fill:#d3d7cf;fill-opacity:1;fill-rule:evenodd;stroke:none;stroke-width:1;marker:none;visibility:visible;display:none;overflow:visible"
       id="rect1315"
       width="16"
       height="16"
       x="-127.33555"
       y="-234.02055" />
    <rect
       style="color:#000000;fill:#d3d7cf;fill-opacity:1;fill-rule:evenodd;stroke:none;stroke-width:1;marker:none;visibility:visible;display:none;overflow:visible"
       id="rect3481"
       width="22"
       height="22"
       x="-127.33555"
       y="-208.02055" />
    <path
       sodipodi:type="arc"
       style="color:#000000;fill:url(#radialGradient11410);fill-opacity:1;fill-rule:evenodd;stroke:none;stroke-width:0.60878164;marker:none;visibility:visible;display:none;overflow:visible"
       id="path3584"
       sodipodi:cx="9.375"
       sodipodi:cy="9.375"
       sodipodi:rx="9.375"
       sodipodi:ry="9.375"
       d="m 18.75,9.375 c 0,5.17767 -4.19733,9.375 -9.375,9.375 C 4.1973305,18.75 0,14.55267 0,9.375 0,4.1973305 4.1973305,0 9.375,0 14.55267,0 18.75,4.1973305 18.75,9.375 z"
       transform="matrix(1.706666,0,0,1.706666,-75.33555,-179.02055)" />
    <path
       sodipodi:type="arc"
       style="color:#000000;fill:url(#radialGradient11412);fill-opacity:1;fill-rule:evenodd;stroke:none;stroke-width:0.48148614;marker:none;visibility:visible;display:none;overflow:visible"
       id="path3586"
       sodipodi:cx="9.375"
       sodipodi:cy="9.375"
       sodipodi:rx="9.375"
       sodipodi:ry="9.375"
       d="m 18.75,9.375 c 0,5.17767 -4.19733,9.375 -9.375,9.375 C 4.1973305,18.75 0,14.55267 0,9.375 0,4.1973305 4.1973305,0 9.375,0 14.55267,0 18.75,4.1973305 18.75,9.375 z"
       transform="matrix(2.133334,0,0,2.133334,-79.33555,-183.02056)" />
    <path
       sodipodi:type="arc"
       style="color:#000000;fill:url(#radialGradient11414);fill-opacity:1;fill-rule:evenodd;stroke:none;stroke-width:0.39974412;marker:none;visibility:visible;display:none;overflow:visible"
       id="path3588"
       sodipodi:cx="9.375"
       sodipodi:cy="9.375"
       sodipodi:rx="9.375"
       sodipodi:ry="9.375"
       d="m 18.75,9.375 c 0,5.17767 -4.19733,9.375 -9.375,9.375 C 4.1973305,18.75 0,14.55267 0,9.375 0,4.1973305 4.1973305,0 9.375,0 14.55267,0 18.75,4.1973305 18.75,9.375 z"
       transform="matrix(2.559999,0,0,2.559999,-83.33555,-187.02055)" />
    <g
       style="display:none"
       id="g3977"
       transform="translate(-263.3356,-199.52055)">
      <path
         transform="matrix(1.142857,0,0,1.5,-11.14285,-8.25)"
         d="m 57,28.5 c 0,0.552285 -0.783502,1 -1.75,1 -0.966498,0 -1.75,-0.447715 -1.75,-1 0,-0.552285 0.783502,-1 1.75,-1 0.966498,0 1.75,0.447715 1.75,1 z"
         sodipodi:ry="1"
         sodipodi:rx="1.75"
         sodipodi:cy="28.5"
         sodipodi:cx="55.25"
         id="path3954"
         style="color:#000000;fill:#000000;fill-opacity:1;fill-rule:evenodd;stroke:none;stroke-width:1;marker:none;visibility:visible;display:inline;overflow:visible"
         sodipodi:type="arc" />
      <rect
         y="26"
         x="53"
         height="8.5"
         width="1"
         id="rect3956"
         style="color:#000000;fill:#000000;fill-opacity:1;fill-rule:evenodd;stroke:none;stroke-width:1;marker:none;visibility:visible;display:inline;overflow:visible" />
      <path
         sodipodi:nodetypes="cccc"
         id="path3964"
         d="m 54,26 c 2,0 1.5,3 2.5,2.999999 C 54.5,29 56,27.5 54,27.5 L 54,26 z"
         style="fill:#000000;fill-opacity:1;fill-rule:evenodd;stroke:none" />
    </g>
    <g
       style="display:none"
       id="g3997"
       transform="translate(-263.3356,-199.52055)">
      <path
         transform="matrix(1.142857,0,0,1.5,-2.642849,-8.25)"
         d="m 57,28.5 c 0,0.552285 -0.783502,1 -1.75,1 -0.966498,0 -1.75,-0.447715 -1.75,-1 0,-0.552285 0.783502,-1 1.75,-1 0.966498,0 1.75,0.447715 1.75,1 z"
         sodipodi:ry="1"
         sodipodi:rx="1.75"
         sodipodi:cy="28.5"
         sodipodi:cx="55.25"
         id="path3984"
         style="color:#000000;fill:#000000;fill-opacity:1;fill-rule:evenodd;stroke:none;stroke-width:1;marker:none;visibility:visible;display:inline;overflow:visible"
         sodipodi:type="arc" />
      <rect
         y="26"
         x="61.5"
         height="8.5"
         width="1"
         id="rect3986"
         style="color:#000000;fill:#000000;fill-opacity:1;fill-rule:evenodd;stroke:none;stroke-width:1;marker:none;visibility:visible;display:inline;overflow:visible" />
      <path
         sodipodi:nodetypes="cccc"
         id="path3988"
         d="M 62.500001,26 C 64.5,26 64,28.500001 65,28.5 c -1.500001,1e-6 -0.499999,-1 -2.499999,-1 l 0,-1.5 z"
         style="fill:#000000;fill-opacity:1;fill-rule:evenodd;stroke:none" />
      <path
         sodipodi:nodetypes="cccc"
         id="path3995"
         d="M 62.500001,28 C 64.5,28 64,30.500001 65,30.5 c -1.500001,1e-6 -0.499999,-1 -2.499999,-1 l 0,-1.5 z"
         style="fill:#000000;fill-opacity:1;fill-rule:evenodd;stroke:none;display:inline" />
    </g>
    <g
       transform="translate(-185.33555,-234.02055)"
       id="g4113"
       style="display:none">
      <path
         transform="matrix(-1.142857,0,0,-1.5,56.14275,104.75)"
         d="m 57,28.5 c 0,0.552285 -0.783502,1 -1.75,1 -0.966498,0 -1.75,-0.447715 -1.75,-1 0,-0.552285 0.783502,-1 1.75,-1 0.966498,0 1.75,0.447715 1.75,1 z"
         sodipodi:ry="1"
         sodipodi:rx="1.75"
         sodipodi:cy="28.5"
         sodipodi:cx="55.25"
         id="path4005"
         style="color:#000000;fill:#000000;fill-opacity:1;fill-rule:evenodd;stroke:none;stroke-width:1;marker:none;visibility:visible;display:inline;overflow:visible"
         sodipodi:type="arc" />
      <rect
         transform="scale(-1,-1)"
         y="-70.5"
         x="8.0000496"
         height="8.5"
         width="1"
         id="rect4007"
         style="color:#000000;fill:#000000;fill-opacity:1;fill-rule:evenodd;stroke:none;stroke-width:1;marker:none;visibility:visible;display:inline;overflow:visible" />
      <path
         sodipodi:nodetypes="cccc"
         id="path4009"
         d="m -8.00005,70.499999 c 2,0 1.5,-3 2.5,-2.999999 -2,-10e-7 -0.5,1.499999 -2.5,1.499999 l 0,1.5 z"
         style="fill:#000000;fill-opacity:1;fill-rule:evenodd;stroke:none;display:inline" />
    </g>
    <g
       style="display:none"
       id="g4028"
       transform="translate(-263.83555,-199.52055)">
      <path
         transform="matrix(-1.142857,0,0,-1.5,142.6428,70.25)"
         d="m 57,28.5 c 0,0.552285 -0.783502,1 -1.75,1 -0.966498,0 -1.75,-0.447715 -1.75,-1 0,-0.552285 0.783502,-1 1.75,-1 0.966498,0 1.75,0.447715 1.75,1 z"
         sodipodi:ry="1"
         sodipodi:rx="1.75"
         sodipodi:cy="28.5"
         sodipodi:cx="55.25"
         id="path4016"
         style="color:#000000;fill:#000000;fill-opacity:1;fill-rule:evenodd;stroke:none;stroke-width:1;marker:none;visibility:visible;display:inline;overflow:visible"
         sodipodi:type="arc" />
      <rect
         transform="scale(-1,-1)"
         y="-36"
         x="-78.5"
         height="8.5"
         width="1"
         id="rect4018"
         style="color:#000000;fill:#000000;fill-opacity:1;fill-rule:evenodd;stroke:none;stroke-width:1;marker:none;visibility:visible;display:inline;overflow:visible" />
      <path
         sodipodi:nodetypes="cccc"
         id="path4020"
         d="M 78.500001,36 C 80.5,36 80,33.499999 81,33.5 c -1.500001,-10e-7 -0.499999,1 -2.499999,1 l 0,1.5 z"
         style="fill:#000000;fill-opacity:1;fill-rule:evenodd;stroke:none" />
      <path
         sodipodi:nodetypes="cccc"
         id="path4022"
         d="M 78.500001,34 C 80.5,34 80,31.499999 81,31.5 c -1.500001,-1e-6 -0.499999,1 -2.499999,1 l 0,1.5 z"
         style="fill:#000000;fill-opacity:1;fill-rule:evenodd;stroke:none;display:inline" />
    </g>
    <g
       id="g4074"
       transform="translate(-184.33555,-235.02055)"
       style="display:none">
      <path
         transform="matrix(1.142857,0,0,1.5,-89.14285,39.75)"
         d="m 57,28.5 c 0,0.552285 -0.783502,1 -1.75,1 -0.966498,0 -1.75,-0.447715 -1.75,-1 0,-0.552285 0.783502,-1 1.75,-1 0.966498,0 1.75,0.447715 1.75,1 z"
         sodipodi:ry="1"
         sodipodi:rx="1.75"
         sodipodi:cy="28.5"
         sodipodi:cx="55.25"
         id="path4053"
         style="color:#000000;fill:#000000;fill-opacity:1;fill-rule:evenodd;stroke:none;stroke-width:1;marker:none;visibility:visible;display:inline;overflow:visible"
         sodipodi:type="arc" />
      <path
         sodipodi:nodetypes="ccccccccc"
         id="rect4055"
         d="m -25,74 6,1.5 0,8.5 -1,0 0,-7 -4,-1 0,6.5 -1,0 0,-8.5 z"
         style="color:#000000;fill:#000000;fill-opacity:1;fill-rule:evenodd;stroke:none;stroke-width:1;marker:none;visibility:visible;display:inline;overflow:visible" />
      <path
         transform="matrix(1.142857,0,0,1.5,-84.14285,41.25)"
         d="m 57,28.5 c 0,0.552285 -0.783502,1 -1.75,1 -0.966498,0 -1.75,-0.447715 -1.75,-1 0,-0.552285 0.783502,-1 1.75,-1 0.966498,0 1.75,0.447715 1.75,1 z"
         sodipodi:ry="1"
         sodipodi:rx="1.75"
         sodipodi:cy="28.5"
         sodipodi:cx="55.25"
         id="path4061"
         style="color:#000000;fill:#000000;fill-opacity:1;fill-rule:evenodd;stroke:none;stroke-width:1;marker:none;visibility:visible;display:inline;overflow:visible"
         sodipodi:type="arc" />
    </g>
    <g
       id="g4090"
       transform="translate(-185.83555,-236.02055)"
       style="display:none">
      <path
         transform="matrix(1.142857,0,0,-1.5,-74.64285,120.75)"
         d="m 57,28.5 c 0,0.552285 -0.783502,1 -1.75,1 -0.966498,0 -1.75,-0.447715 -1.75,-1 0,-0.552285 0.783502,-1 1.75,-1 0.966498,0 1.75,0.447715 1.75,1 z"
         sodipodi:ry="1"
         sodipodi:rx="1.75"
         sodipodi:cy="28.5"
         sodipodi:cx="55.25"
         id="path4081"
         style="color:#000000;fill:#000000;fill-opacity:1;fill-rule:evenodd;stroke:none;stroke-width:1;marker:none;visibility:visible;display:inline;overflow:visible"
         sodipodi:type="arc" />
      <path
         sodipodi:nodetypes="ccccccccc"
         id="path4083"
         d="m -13.5,86.5 6,-1.5 0,-8.5 -1,0 0,7 -4,1 0,-6.5 -1,0 0,8.5 z"
         style="color:#000000;fill:#000000;fill-opacity:1;fill-rule:evenodd;stroke:none;stroke-width:1;marker:none;visibility:visible;display:inline;overflow:visible" />
      <path
         transform="matrix(1.142857,0,0,-1.5,-69.64285,119.25)"
         d="m 57,28.5 c 0,0.552285 -0.783502,1 -1.75,1 -0.966498,0 -1.75,-0.447715 -1.75,-1 0,-0.552285 0.783502,-1 1.75,-1 0.966498,0 1.75,0.447715 1.75,1 z"
         sodipodi:ry="1"
         sodipodi:rx="1.75"
         sodipodi:cy="28.5"
         sodipodi:cx="55.25"
         id="path4085"
         style="color:#000000;fill:#000000;fill-opacity:1;fill-rule:evenodd;stroke:none;stroke-width:1;marker:none;visibility:visible;display:inline;overflow:visible"
         sodipodi:type="arc" />
    </g>
    <path
       sodipodi:type="arc"
       style="color:#000000;fill:#5c3566;fill-opacity:1;fill-rule:evenodd;stroke:none;stroke-width:1;marker:none;visibility:visible;display:none;overflow:visible"
       id="path5560"
       sodipodi:cx="64"
       sodipodi:cy="37"
       sodipodi:rx="16"
       sodipodi:ry="16"
       d="m 80,37 c 0,8.836556 -7.163444,16 -16,16 -8.836556,0 -16,-7.163444 -16,-16 0,-8.836556 7.163444,-16 16,-16 8.836556,0 16,7.163444 16,16 z"
       transform="translate(-121.83075,-155.01575)" />
    <path
       sodipodi:type="arc"
       style="color:#000000;fill:#75507b;fill-opacity:1;fill-rule:evenodd;stroke:none;stroke-width:1;marker:none;visibility:visible;display:none;overflow:visible"
       id="path5562"
       sodipodi:cx="64"
       sodipodi:cy="37"
       sodipodi:rx="16"
       sodipodi:ry="16"
       d="m 80,37 c 0,8.836556 -7.163444,16 -16,16 -8.836556,0 -16,-7.163444 -16,-16 0,-8.836556 7.163444,-16 16,-16 8.836556,0 16,7.163444 16,16 z"
       transform="matrix(0.7503,0,0,0.7503,-105.84995,-145.77685)" />
    <path
       sodipodi:type="arc"
       style="color:#000000;fill:#ad7fa8;fill-opacity:1;fill-rule:evenodd;stroke:none;stroke-width:1;marker:none;visibility:visible;display:none;overflow:visible"
       id="path5564"
       sodipodi:cx="64"
       sodipodi:cy="37"
       sodipodi:rx="16"
       sodipodi:ry="16"
       d="m 80,37 c 0,8.836556 -7.163444,16 -16,16 -8.836556,0 -16,-7.163444 -16,-16 0,-8.836556 7.163444,-16 16,-16 8.836556,0 16,7.163444 16,16 z"
       transform="matrix(0.499916,0,0,0.499916,-89.82539,-136.51265)" />
    <g
       id="g4489"
       transform="translate(-185.33555,-235.02055)"
       style="display:none">
      <rect
         ry="1.0852587"
         y="27.5"
         x="26.5"
         height="12"
         width="12"
         id="rect4451"
         style="color:#000000;fill:url(#linearGradient11416);fill-opacity:1;fill-rule:evenodd;stroke:#a40000;stroke-width:1;stroke-linecap:round;stroke-linejoin:miter;stroke-miterlimit:4;stroke-opacity:1;stroke-dasharray:none;stroke-dashoffset:0;marker:none;visibility:visible;display:inline;overflow:visible" />
      <g
         transform="translate(-2.000047,-2.00005)"
         id="g4467">
        <rect
           style="color:#000000;fill:#ffffff;fill-opacity:1;fill-rule:evenodd;stroke:none;stroke-width:1;marker:none;visibility:visible;display:inline;overflow:visible"
           id="rect4463"
           width="9.0000229"
           height="2.0000057"
           x="44.997532"
           y="-0.29288569"
           ry="0"
           transform="matrix(0.707107,0.707107,-0.707107,0.707107,0,0)" />
        <rect
           style="color:#000000;fill:#ffffff;fill-opacity:1;fill-rule:evenodd;stroke:none;stroke-width:1;marker:none;visibility:visible;display:inline;overflow:visible"
           id="rect4465"
           width="9.0000229"
           height="2.0000057"
           x="-3.7929118"
           y="48.497509"
           ry="0"
           transform="matrix(-0.707107,0.707107,0.707107,0.707107,0,0)" />
      </g>
      <rect
         style="color:#000000;fill:none;stroke:#ef2929;stroke-width:1;stroke-linecap:round;stroke-linejoin:round;stroke-miterlimit:4;stroke-opacity:1;stroke-dasharray:none;stroke-dashoffset:0;marker:none;visibility:visible;display:inline;overflow:visible"
         id="rect4479"
         width="10"
         height="10"
         x="27.5"
         y="28.5"
         ry="0" />
    </g>
    <rect
       ry="1.0852587"
       y="-229.52055"
       x="-118.83555"
       height="7"
       width="7"
       id="rect4506"
       style="color:#000000;fill:url(#linearGradient11418);fill-opacity:1;fill-rule:evenodd;stroke:#a40000;stroke-width:1;stroke-linecap:round;stroke-linejoin:miter;stroke-miterlimit:4;stroke-opacity:1;stroke-dasharray:none;stroke-dashoffset:0;marker:none;visibility:visible;display:none;overflow:visible" />
    <path
       style="fill:#ffffff;fill-opacity:1;fill-rule:evenodd;stroke:none;display:none"
       d="m -117.83555,-227.52055 1,-1 4,4 -1,1 -4,-4 z"
       id="path4510"
       sodipodi:nodetypes="ccccc" />
    <path
       style="fill:#ffffff;fill-opacity:1;fill-rule:evenodd;stroke:none;display:none"
       d="m -116.83555,-223.52055 -1,-1 4,-4 1,1 -4,4 z"
       id="path4512"
       sodipodi:nodetypes="ccccc" />
    <g
       transform="translate(-185.33555,-234.02055)"
       id="g5709"
       style="display:none">
      <rect
         ry="0.99253845"
         y="32.499989"
         x="70.499382"
         height="9.0006237"
         width="9.0006361"
         id="rect5674"
         style="color:#000000;fill:url(#linearGradient11420);fill-opacity:1;fill-rule:evenodd;stroke:#a40000;stroke-width:1;stroke-linecap:round;stroke-linejoin:miter;stroke-miterlimit:4;stroke-opacity:1;stroke-dasharray:none;stroke-dashoffset:0;marker:none;visibility:visible;display:inline;overflow:visible" />
      <rect
         style="color:#000000;fill:none;stroke:#ef2929;stroke-width:1;stroke-linecap:round;stroke-linejoin:round;stroke-miterlimit:4;stroke-opacity:1;stroke-dasharray:none;stroke-dashoffset:0;marker:none;visibility:visible;display:inline;overflow:visible"
         id="rect5682"
         width="7"
         height="7"
         x="71.5"
         y="33.5"
         ry="0" />
      <g
         id="g5705">
        <path
           style="fill:#ffffff;fill-opacity:1;fill-rule:evenodd;stroke:none;display:inline"
           d="m 72.5,35.5 1,-1 4,4 -1,1 -4,-4 z"
           id="path5693"
           sodipodi:nodetypes="ccccc" />
        <path
           style="fill:#ffffff;fill-opacity:1;fill-rule:evenodd;stroke:none;display:inline"
           d="m 73.5,39.5 -1,-1 4,-4 1,1 -4,4 z"
           id="path5695"
           sodipodi:nodetypes="ccccc" />
      </g>
    </g>
    <g
       id="g3341"
       transform="translate(0,-166.0005)">
      <g
         id="g3331">
        <g
           id="g8501"
           transform="matrix(1,0,0,1.5,0,145.0625)"
           style="opacity:0.5">
          <rect
             y="35"
             x="0"
             height="7.9999995"
             width="6"
             id="rect8503"
             style="color:#000000;fill:url(#radialGradient3459);fill-opacity:1;fill-rule:nonzero;stroke:none;stroke-width:1;marker:none;visibility:visible;display:inline;overflow:visible" />
          <rect
             y="35"
             x="6"
             height="7.9999995"
             width="36"
             id="rect8505"
             style="color:#000000;fill:url(#linearGradient3461);fill-opacity:1;fill-rule:nonzero;stroke:none;stroke-width:1;marker:none;visibility:visible;display:inline;overflow:visible" />
          <rect
             transform="scale(-1,-1)"
             y="-43"
             x="-48"
             height="7.9999995"
             width="6"
             id="rect8507"
             style="color:#000000;fill:url(#radialGradient3463);fill-opacity:1;fill-rule:nonzero;stroke:none;stroke-width:1;marker:none;visibility:visible;display:inline;overflow:visible" />
        </g>
        <path
           style="color:#000000;fill:url(#linearGradient3465);fill-opacity:1;fill-rule:nonzero;stroke:#204a87;stroke-width:0.99999994;stroke-linecap:square;stroke-linejoin:round;stroke-miterlimit:4;stroke-opacity:1;stroke-dasharray:none;stroke-dashoffset:1.5;marker:none;visibility:visible;display:inline;overflow:visible"
           d="m 7.5,171.5 -4,4 0,24 c 0,1.108 0.892,2 2,2 l 35,0 c 1.108,0 2,-0.892 2,-2 l 0,-22 c 0,-1.108 -0.892,-2 -2,-2 l -17,0 -4,-4 -12,0 z"
           id="path8509"
           sodipodi:nodetypes="ccccccccccc" />
        <path
           sodipodi:type="inkscape:offset"
           inkscape:radius="-0.984375"
           inkscape:original="M 7.5 5.5 L 3.5 9.5 L 3.5 38.5 C 3.5 39.608 4.392 40.500001 5.5 40.5 L 42.5 40.5 C 43.608 40.5 44.5 39.608001 44.5 38.5 L 44.5 11.5 C 44.5 10.392 43.608 9.5 42.5 9.5 L 23.5 9.5 L 19.5 5.5 L 7.5 5.5 z "
           style="opacity:0.4;color:#000000;fill:none;stroke:url(#linearGradient3467);stroke-width:0.99999994;stroke-linecap:square;stroke-linejoin:round;stroke-miterlimit:4;stroke-opacity:1;stroke-dasharray:none;stroke-dashoffset:1.5;marker:none;visibility:visible;display:inline;overflow:visible"
           id="path8511"
           d="M 7.875,6.5 4.5,9.875 4.5,38.5 c 0,0.579683 0.4203179,1.031251 1,1.03125 L 42.5,39.5 c 0.579684,0 1,-0.420315 1,-1 l 0,-27 c 0,-0.579683 -0.420317,-1 -1,-1 l -19,0 A 0.98447344,0.98447344 0 0 1 22.8125,10.1875 L 19.125,6.5 7.875,6.5 z"
           transform="translate(0,166)" />
        <path
           style="color:#000000;fill:url(#linearGradient3469);fill-opacity:1;fill-rule:nonzero;stroke:#204a87;stroke-width:0.99999994;stroke-linecap:square;stroke-linejoin:bevel;stroke-miterlimit:4;stroke-opacity:1;stroke-dasharray:none;stroke-dashoffset:1.5;marker:none;visibility:visible;display:inline;overflow:visible"
           d="m 23.5,175.5 -4,4 -13,0 -1,0 c -1.108,0 -2,0.892 -2,2 l 0,23 c 0,1.108 0.892,2 2,2 l 37,0 c 1.108,0 2,-0.892 2,-2 l 0,-27 c 0,-1.108 -0.892,-2 -2,-2 l -1,0 -18,0 z"
           id="path8513"
           sodipodi:nodetypes="ccccccccccccc" />
        <path
           sodipodi:type="inkscape:offset"
           inkscape:radius="-0.99436891"
           inkscape:original="M 23.5 9.5 L 19.5 13.5 L 6.5 13.5 L 5.5 13.5 C 4.392 13.5 3.5 14.392 3.5 15.5 L 3.5 38.5 C 3.5 39.608 4.392 40.499999 5.5 40.5 L 42.5 40.5 C 43.608 40.5 44.5 39.608001 44.5 38.5 L 44.5 11.5 C 44.5 10.392 43.608 9.5 42.5 9.5 L 41.5 9.5 L 23.5 9.5 z "
           style="opacity:0.5;color:#000000;fill:none;stroke:url(#linearGradient3471);stroke-width:0.99999994;stroke-linecap:square;stroke-linejoin:bevel;stroke-miterlimit:4;stroke-opacity:1;stroke-dasharray:none;stroke-dashoffset:1.5;marker:none;visibility:visible;display:inline;overflow:visible"
           id="path8515"
           d="m 23.875,10.5 -3.6875,3.6875 A 0.99446835,0.99446835 0 0 1 19.5,14.5 l -13,0 -1,0 c -0.5743195,0 -1,0.425681 -1,1 l 0,23 c 0,0.574319 0.4256795,0.999999 1,1 l 37,0 c 0.57432,0 1,-0.425679 1,-1 l 0,-27 c 0,-0.574319 -0.425681,-1 -1,-1 l -1,0 -17.625,0 z"
           transform="translate(0,166)" />
      </g>
      <g
         transform="translate(1,0)"
         id="g3216">
        <path
           style="fill:#ffffff;fill-opacity:1;stroke:#547292;stroke-width:2;stroke-miterlimit:4;stroke-opacity:1;stroke-dasharray:none"
           d="m 18,186 0,1 -2,0 0,-0.96875 c -0.55854,0.09 -1,0.57154 -1,1.15625 l 0,12.625 c 0,0.58471 0.44146,1.06623 1,1.15625 L 16,200 l 2,0 0,1 1,0 0,-1.125 9,0 0,1.125 1,0 0,-1 2,0 0,0.96875 c 0.55854,-0.09 1,-0.57154 1,-1.15625 l 0,-12.625 c 0,-0.58471 -0.44146,-1.06623 -1,-1.15625 L 31,187 l -2,0 0,-1 -1,0 0,1 -9,0 0,-1 -1,0 z m -2,2 2,0 0,2 -2,0 0,-2 z m 3,0 9,0 0,5 -9,0 0,-5 z m 10,0 2,0 0,2 -2,0 0,-2 z m -13,3 2,0 0,2 -2,0 0,-2 z m 13,0 2,0 0,2 -2,0 0,-2 z m -13,3 2,0 0,2 -2,0 0,-2 z m 3,0 9,0 0,5 -9,0 0,-5 z m 10,0 2,0 0,2 -2,0 0,-2 z m -13,3 2,0 0,2 -2,0 0,-2 z m 13,0 2,0 0,2 -2,0 0,-2 z"
           id="path8709" />
        <path
           id="rect8667"
           d="m 18,186 0,1 -2,0 0,-0.96875 c -0.55854,0.09 -1,0.57154 -1,1.15625 l 0,12.625 c 0,0.58471 0.44146,1.06623 1,1.15625 L 16,200 l 2,0 0,1 1,0 0,-1.125 9,0 0,1.125 1,0 0,-1 2,0 0,0.96875 c 0.55854,-0.09 1,-0.57154 1,-1.15625 l 0,-12.625 c 0,-0.58471 -0.44146,-1.06623 -1,-1.15625 L 31,187 l -2,0 0,-1 -1,0 0,1 -9,0 0,-1 -1,0 z m -2,2 2,0 0,2 -2,0 0,-2 z m 3,0 9,0 0,5 -9,0 0,-5 z m 10,0 2,0 0,2 -2,0 0,-2 z m -13,3 2,0 0,2 -2,0 0,-2 z m 13,0 2,0 0,2 -2,0 0,-2 z m -13,3 2,0 0,2 -2,0 0,-2 z m 3,0 9,0 0,5 -9,0 0,-5 z m 10,0 2,0 0,2 -2,0 0,-2 z m -13,3 2,0 0,2 -2,0 0,-2 z m 13,0 2,0 0,2 -2,0 0,-2 z"
           style="fill:#ffffff;fill-opacity:1;stroke:none" />
      </g>
    </g>
  </g>
</svg>
