/* XPM */
static char *iok[] = {
/* columns rows colors chars-per-pixel */
"32 32 114 2",
"   c black",
".  c #040201",
"X  c #040301",
"o  c #050301",
"O  c #060401",
"+  c #050402",
"@  c #060402",
"#  c #090602",
"$  c #090703",
"%  c #0A0602",
"&  c #0B0703",
"*  c #0B0802",
"=  c #0C0903",
"-  c #0A0804",
";  c #0B0804",
":  c #0E0904",
">  c #100C05",
",  c #120C05",
"<  c #120D05",
"1  c #110D06",
"2  c #130F07",
"3  c #100C09",
"4  c #110D0A",
"5  c #151008",
"6  c #181309",
"7  c #1B1408",
"8  c #1C1509",
"9  c #1E1609",
"0  c #1D170B",
"q  c #1D1711",
"w  c #1E1812",
"e  c #251D07",
"r  c #201509",
"t  c #22190B",
"y  c #251B0C",
"u  c #271F0F",
"i  c #382C0B",
"p  c #2A2110",
"a  c #2C2311",
"s  c #2D2412",
"d  c #2E2412",
"f  c #392610",
"g  c #392A12",
"h  c #3C2811",
"j  c #3D2912",
"k  c #3E2A12",
"l  c #382C16",
"z  c #3A2E17",
"x  c #3B2F17",
"c  c #3E3118",
"v  c #3F3219",
"b  c #47380E",
"n  c #4B3C0F",
"m  c #483617",
"M  c #4B3818",
"N  c #663300",
"B  c #7D4B19",
"V  c #7F4C19",
"C  c #5D4A25",
"Z  c #5F4C26",
"A  c #614D26",
"S  c #785123",
"D  c #795224",
"F  c #7C5424",
"G  c #7B6231",
"H  c #7D6432",
"J  c #7E6432",
"K  c #8F612A",
"L  c #90622A",
"P  c #98672D",
"I  c #9D7633",
"U  c #9F7734",
"Y  c #91743A",
"T  c #96783C",
"R  c #97783C",
"E  c #B47A35",
"W  c #BA7E37",
"Q  c #CB7928",
"!  c #CD7B29",
"~  c #CC6633",
"^  c #9C7C5D",
"/  c #9E7E5E",
"(  c #CD8B3D",
")  c #FF9933",
"_  c #D6AB2A",
"`  c #FFCC33",
"'  c #A48341",
"]  c #C19A4D",
"[  c #C69E4F",
"{  c #D49F45",
"}  c #E49B43",
"|  c #D6A146",
" . c #CCA351",
".. c #CEA452",
"X. c #D2A854",
"o. c #D8AC56",
"O. c #DBAF57",
"+. c #F2A548",
"@. c #F3A548",
"#. c #F5A749",
"$. c #FFAE4C",
"%. c #EEB34E",
"&. c #F0B44F",
"*. c #E1B45A",
"=. c #F9BB52",
"-. c #FFC054",
";. c #F1C060",
":. c #F3C261",
">. c #F4C361",
",. c #F5C462",
"<. c #FFCC66",
"1. c #EFBF8F",
"2. c #F9C795",
"3. c #FFCC99",
/* pixels */
"N ~ $.<.` <.<.$.-.-.) <.<.<.$.<.3.` <.<.<.<.$.-.$.<.<.<.$.<.<.<.",
"N ~ $.<.` <.<.$.-.-.) <.<.<.$.<.3.` <.<.<.$.-.-.$.<.<.<.$.<.<.<.",
"N ~ $.<.` <.<.$.-.-.) <.<.<.$.<.3.` <.<.<.$.-.-.$.<.<.<.$.<.<.<.",
"N ~ $.<.` <.<.$.-.-.) <.<.<.$.<.3.` <.<.<.$.-.-.$.<.<.<.$.<.<.<.",
"N ~ $.<.` <.<.$.-.-.) <.<.$.<.<.3.` <.<.<.$.-.-.$.<.<.<.$.<.<.<.",
"N ~ $.<.` <.<.$.-.-.) <.<.$.<.<.3.` <.<.<.$.-.-.$.<.<.<.$.<.<.<.",
"N ~ $.<.` <.<.$.-.-.) <.<.$.<.<.3.` <.<.<.$.-.-.$.<.<.<.$.<.<.<.",
"N ~ $.<.` <.<.$.-.-.) <.<.$.<.<.3.` <.<.<.<.$.-.$.<.<.<.$.<.<.$.",
"N ~ $.<.` <.<.$.-.-.) <.<.$.<.<.3.` <.<.<.<.$.-.$.<.<.<.$.<.<.$.",
"N ~ $.<.` <.<.$.-.-.) <.<.$.<.<.3.` <.<.<.<.$.-.$.<.<.<.$.<.$.<.",
"N ~ $.<.` <.<.$.-.-.) <.<.$.<.<.3.` <.<.<.<.$.-.$.<.<.<.$.<.$.<.",
"N ~ $.<.` <.<.$.-.-.) <.<.$.<.<.3.` <.<.<.<.$.-.$.<.<.<.$.<.$.<.",
"N ~ $.<.` <.<.$.-.-.) <.<.$.<.<.3.` <.<.<.<.$.-.$.<.<.<.$.<.$.<.",
"N ~ $.  n <.<.$.-.&.V d ; & d J 1.` <.<.<.<.  M $.<.<.<.} p . ' ",
"N ~ $.  n <.<.$.| 9 o C T P Z + w _ <.<.<.<.  M $.<.<.O.r $ E <.",
"N ~ $.  n <.<.#.y > Q <.<.$.<. .3 e ,.<.<.<.  M $.<.X.6 : ] $.<.",
"N ~ $.  n <.<.L   I ) <.<.$.<.<.^   Y <.<.<.  M $.[ 1 5 ( <.$.<.",
"N ~ $.  n <.<.k = =.) <.<.$.<.<.2.* v <.<.<.  M W ; 0 o.$.<.$.<.",
"N ~ $.  n <.<., g -.) <.<.$.<.<.3.i 2 <.<.<.  7 O u *.<.$.<.$.<.",
"N ~ $.  n <.<.. m -.) <.<.$.<.<.3.b X <.<.<.  #   c >.$.<.<.$.<.",
"N ~ $.  n <.<., g -.) <.<.$.<.<.3.i 2 <.<.<.  M S   c @.<.<.$.<.",
"N ~ $.  n <.<.j = =.) <.<.$.<.<.2.* v <.<.<.  M -.D   h :.<.$.<.",
"N ~ $.  n <.<.K   U ) <.<.$.<.<./   Y <.<.<.  M -.$.G   x :.$.<.",
"N ~ $.  n <.<.@.t < ! <.<.$.<...4 e ,.<.<.<.  M -.$.<.F   z +.<.",
"N ~ $.  n <.<.$.{ 8 o Z R P A @ q _ <.<.<.<.  M -.$.<.$.H   f ;.",
"N ~ $.  n <.<.$.-.%.B s - % a H 1.` <.<.<.<.  M -.$.<.$.<.J   l ",
"N ~ $.<.` <.<.$.-.-.) <.<.$.<.<.3.` <.<.<.<.$.-.-.$.<.$.<.<.$.<.",
"N ~ $.<.` <.<.$.-.-.) <.<.$.<.<.3.` <.<.<.$.-.-.-.$.<.$.<.<.$.<.",
"N ~ $.<.` <.<.$.-.-.) <.<.$.<.<.3.` <.<.<.$.-.-.-.$.<.$.<.<.$.<.",
"N ~ $.<.` <.$.-.-.-.) <.<.$.<.<.3.` <.<.<.$.-.-.$.<.<.$.<.<.$.<.",
"N ~ $.<.` <.$.-.-.-.) <.<.$.<.<.3.` <.<.<.$.-.-.$.<.<.$.<.<.$.<.",
"N ~ $.<.` <.$.-.-.-.) <.<.$.<.<.3.` <.<.<.$.-.-.$.<.<.$.<.<.$.<."
};
