/* XPM */
static char * gnome_networktool_xpm[] = {
"48 48 868 2",
"  	c None",
". 	c #4D718D",
"+ 	c #607D87",
"@ 	c #3266A1",
"# 	c #6B8288",
"$ 	c #889279",
"% 	c #697A7C",
"& 	c #787D6E",
"* 	c #6F6F60",
"= 	c #326AAC",
"- 	c #3875BC",
"; 	c #3C75B9",
"> 	c #829992",
", 	c #88A47F",
"' 	c #8AA47D",
") 	c #869E75",
"! 	c #829979",
"~ 	c #7B927B",
"{ 	c #8D9C6E",
"] 	c #7B9168",
"^ 	c #798D63",
"/ 	c #75845F",
"( 	c #56604B",
"_ 	c #326DAF",
": 	c #3A7DC2",
"< 	c #5F8FBC",
"[ 	c #B8B7A1",
"} 	c #96A49B",
"| 	c #7B9B92",
"1 	c #779691",
"2 	c #97A38D",
"3 	c #919E84",
"4 	c #97A67F",
"5 	c #8DA179",
"6 	c #869E6E",
"7 	c #8D996B",
"8 	c #849666",
"9 	c #728D5F",
"0 	c #6B8457",
"a 	c #647B50",
"b 	c #415035",
"c 	c #3E73AC",
"d 	c #447FB8",
"e 	c #4B80B5",
"f 	c #B2B5AF",
"g 	c #DCD6B5",
"h 	c #A6AFA8",
"i 	c #7994AC",
"j 	c #7991AB",
"k 	c #6E8DA8",
"l 	c #96979C",
"m 	c #AEA892",
"n 	c #B7AE8F",
"o 	c #A09E88",
"p 	c #63747D",
"q 	c #7F8474",
"r 	c #AFA37D",
"s 	c #B5A879",
"t 	c #B7AB6E",
"u 	c #918D59",
"v 	c #767347",
"w 	c #4279B3",
"x 	c #4E7FB2",
"y 	c #5F8BB5",
"z 	c #D7D4BD",
"A 	c #FAF8D2",
"B 	c #FBFAD5",
"C 	c #FCFBCD",
"D 	c #FBFAD9",
"E 	c #BBC4B5",
"F 	c #698DA4",
"G 	c #54809E",
"H 	c #92979C",
"I 	c #868F92",
"J 	c #D7BC99",
"K 	c #C9BD99",
"L 	c #99978B",
"M 	c #8D8D7D",
"N 	c #C9B588",
"O 	c #8F997F",
"P 	c #CEC282",
"Q 	c #C5B56D",
"R 	c #AB985A",
"S 	c #3A3828",
"T 	c #437BB3",
"U 	c #5184B7",
"V 	c #BFCAC4",
"W 	c #F2F2C7",
"X 	c #FCFCE8",
"Y 	c #FCFCF2",
"Z 	c #FCFCEE",
"` 	c #FCFCE4",
" .	c #F7F7CC",
"..	c #B9C4B7",
"+.	c #82A3AF",
"@.	c #96AFB2",
"#.	c #638699",
"$.	c #758892",
"%.	c #AEA394",
"&.	c #CEB592",
"*.	c #EAD499",
"=.	c #E7CF9C",
"-.	c #ABA991",
";.	c #A8B18D",
">.	c #C3BF82",
",.	c #C4AF68",
"'.	c #A8985A",
").	c #302E23",
"!.	c #3E77AF",
"~.	c #4D82B7",
"{.	c #CCD8D4",
"].	c #FBFBD2",
"^.	c #FCFCD3",
"/.	c #FCFCDE",
"(.	c #FCFCE9",
"_.	c #FCFCDC",
":.	c #FCFADC",
"<.	c #FCFCD6",
"[.	c #FCFCD2",
"}.	c #FAF9D4",
"|.	c #F9F9E6",
"1.	c #FAFAE1",
"2.	c #E0E4CF",
"3.	c #B2C0AB",
"4.	c #889C96",
"5.	c #DED69E",
"6.	c #FCFAB1",
"7.	c #F6EAA3",
"8.	c #D6CA9C",
"9.	c #8D9988",
"0.	c #C7BB7D",
"a.	c #C4B26B",
"b.	c #A49659",
"c.	c #817650",
"d.	c #376DA1",
"e.	c #487FAF",
"f.	c #779EBF",
"g.	c #FAFAF0",
"h.	c #FCFCF4",
"i.	c #FCFCEF",
"j.	c #FCFCD5",
"k.	c #FCFCD7",
"l.	c #FCFCDD",
"m.	c #FCFBC9",
"n.	c #FCFCD4",
"o.	c #FBFACC",
"p.	c #E1DCA9",
"q.	c #F7ECA8",
"r.	c #FCFBB7",
"s.	c #F9F2AF",
"t.	c #E0D299",
"u.	c #D2C494",
"v.	c #BCB47D",
"w.	c #AF9E68",
"x.	c #A89B66",
"y.	c #918D69",
"z.	c #666144",
"A.	c #447BB2",
"B.	c #4E82B5",
"C.	c #D7DECC",
"D.	c #FBFBD5",
"E.	c #FCFCE1",
"F.	c #FCFCCD",
"G.	c #FAF9D2",
"H.	c #FAF7BF",
"I.	c #FCFCCE",
"J.	c #FCFCF0",
"K.	c #BBBF9E",
"L.	c #B7B997",
"M.	c #F2EDAB",
"N.	c #FCFBB5",
"O.	c #DCD9A0",
"P.	c #B7B292",
"Q.	c #C0B586",
"R.	c #A39966",
"S.	c #9E9766",
"T.	c #827F5F",
"U.	c #948F6B",
"V.	c #26251F",
"W.	c #336CA2",
"X.	c #447FB5",
"Y.	c #5384B9",
"Z.	c #CFCAB2",
"`.	c #E3DCA6",
" +	c #FCFCD9",
".+	c #FCFCDA",
"++	c #FCFCF1",
"@+	c #FCFCF7",
"#+	c #FCFCE7",
"$+	c #E0DCA8",
"%+	c #7B8D8D",
"&+	c #D2C992",
"*+	c #FAF0A8",
"=+	c #F8F0A4",
"-+	c #8D917B",
";+	c #99997B",
">+	c #A19C6D",
",+	c #A49964",
"'+	c #867F56",
")+	c #7B7D63",
"!+	c #5E5C46",
"~+	c #000000",
"{+	c #3F79B1",
"]+	c #4880B9",
"^+	c #4E86BC",
"/+	c #A9BBA6",
"(+	c #B1C096",
"_+	c #C2C999",
":+	c #E6E4AC",
"<+	c #F4F4BF",
"[+	c #FCFBD2",
"}+	c #FCFCE3",
"|+	c #FCFCC7",
"1+	c #F0EBAF",
"2+	c #778D8F",
"3+	c #C2BC96",
"4+	c #F5E5A1",
"5+	c #FBF3A8",
"6+	c #EBE19C",
"7+	c #BBB282",
"8+	c #5F6961",
"9+	c #707259",
"0+	c #8F8659",
"a+	c #7E7A53",
"b+	c #73735D",
"c+	c #090909",
"d+	c #4379B2",
"e+	c #4A80B8",
"f+	c #5088BD",
"g+	c #8DA6B5",
"h+	c #BCC49E",
"i+	c #BDC59E",
"j+	c #BCC5A1",
"k+	c #BCC99E",
"l+	c #C3CFA0",
"m+	c #DCE3AF",
"n+	c #F5F5BC",
"o+	c #F5F1B5",
"p+	c #F2ECB5",
"q+	c #FAF5BC",
"r+	c #FCFBBC",
"s+	c #FCFBBF",
"t+	c #FCFABB",
"u+	c #FCF3AF",
"v+	c #F2E0A3",
"w+	c #A4A08D",
"x+	c #949B8D",
"y+	c #F5E8A0",
"z+	c #FBF8AB",
"A+	c #FAF29E",
"B+	c #EAD48D",
"C+	c #63665F",
"D+	c #27394A",
"E+	c #5E5E4D",
"F+	c #6C694B",
"G+	c #66684E",
"H+	c #373830",
"I+	c #346799",
"J+	c #4B82B8",
"K+	c #4E86BB",
"L+	c #548ABB",
"M+	c #6392B7",
"N+	c #7499B7",
"O+	c #6B94B4",
"P+	c #82A1A8",
"Q+	c #9CB796",
"R+	c #A0C097",
"S+	c #9CBF92",
"T+	c #9EBB8F",
"U+	c #A4BD92",
"V+	c #C5C499",
"W+	c #DECE99",
"X+	c #EDD69C",
"Y+	c #F0D79C",
"Z+	c #F0D39C",
"`+	c #DCC092",
" @	c #C4B58D",
".@	c #949984",
"+@	c #DCD1A1",
"@@	c #DDCF99",
"#@	c #AEA484",
"$@	c #75796E",
"%@	c #273F56",
"&@	c #243A4D",
"*@	c #313F48",
"=@	c #5C5E4F",
"-@	c #696954",
";@	c #4F5048",
">@	c #0F0F0F",
",@	c #37699D",
"'@	c #437BAF",
")@	c #4A7FB7",
"!@	c #4E88BC",
"~@	c #538ABF",
"{@	c #548BBF",
"]@	c #548DBD",
"^@	c #578BB7",
"/@	c #598BB5",
"(@	c #7796A4",
"_@	c #9EBB92",
":@	c #8DB58D",
"<@	c #82AF88",
"[@	c #82AB86",
"}@	c #8DAF86",
"|@	c #A0B188",
"1@	c #B7B586",
"2@	c #C8B58D",
"3@	c #C9BC8D",
"4@	c #BDB284",
"5@	c #C9B586",
"6@	c #AEA684",
"7@	c #72807F",
"8@	c #61757B",
"9@	c #31536B",
"0@	c #244763",
"a@	c #26405A",
"b@	c #384857",
"c@	c #45484A",
"d@	c #626261",
"e@	c #70706F",
"f@	c #888887",
"g@	c #7D7D7B",
"h@	c #353538",
"i@	c #040405",
"j@	c #396BA0",
"k@	c #4479AF",
"l@	c #4A7FB5",
"m@	c #4E84B9",
"n@	c #5086BB",
"o@	c #5388BC",
"p@	c #5688B5",
"q@	c #5986AF",
"r@	c #8DA09C",
"s@	c #ABBC91",
"t@	c #9EB78B",
"u@	c #8DAE86",
"v@	c #97B28A",
"w@	c #99AF88",
"x@	c #ABB58A",
"y@	c #BDBB8A",
"z@	c #CABC8D",
"A@	c #CEBD8D",
"B@	c #CCBB88",
"C@	c #E4C48D",
"D@	c #E4C58D",
"E@	c #EFD992",
"F@	c #CEC492",
"G@	c #2D4E68",
"H@	c #21445E",
"I@	c #43505C",
"J@	c #313231",
"K@	c #49494A",
"L@	c #73736F",
"M@	c #78787C",
"N@	c #7D7D82",
"O@	c #9E9E9C",
"P@	c #B9B9B8",
"Q@	c #545454",
"R@	c #3A6899",
"S@	c #4075AB",
"T@	c #467FB4",
"U@	c #4A80B7",
"V@	c #4E84B8",
"W@	c #5086B5",
"X@	c #5484AF",
"Y@	c #5382AC",
"Z@	c #919E9E",
"`@	c #BCBF96",
" #	c #B5BB91",
".#	c #B5B991",
"+#	c #BFB992",
"@#	c #B5B186",
"##	c #C2B788",
"$#	c #BCB588",
"%#	c #C4B588",
"&#	c #C9BC8F",
"*#	c #CDBF8B",
"=#	c #CFBC82",
"-#	c #D9C082",
";#	c #D8C488",
">#	c #4E6670",
",#	c #204665",
"'#	c #294560",
")#	c #3B3D3D",
"!#	c #2B2C2C",
"~#	c #4B4B4C",
"{#	c #666668",
"]#	c #AAAAA7",
"^#	c #C0C0C2",
"/#	c #92928C",
"(#	c #868686",
"_#	c #A2A29E",
":#	c #4E4E4F",
"<#	c #010101",
"[#	c #356699",
"}#	c #3F72A8",
"|#	c #487FB5",
"1#	c #4E7FB5",
"2#	c #4E82B2",
"3#	c #5180AC",
"4#	c #507FA9",
"5#	c #6688A3",
"6#	c #D1C8A6",
"7#	c #C9BF99",
"8#	c #D3C08D",
"9#	c #DCC091",
"0#	c #CFBC8B",
"a#	c #C9B986",
"b#	c #B4A682",
"c#	c #969482",
"d#	c #BCB180",
"e#	c #C7B782",
"f#	c #AB9E74",
"g#	c #918672",
"h#	c #4E6370",
"i#	c #264A69",
"j#	c #204563",
"k#	c #354C62",
"l#	c #424247",
"m#	c #404044",
"n#	c #363635",
"o#	c #252629",
"p#	c #696969",
"q#	c #C8C8CC",
"r#	c #ECECEE",
"s#	c #929290",
"t#	c #727279",
"u#	c #222221",
"v#	c #316395",
"w#	c #3D6EA3",
"x#	c #4475AB",
"y#	c #4879AF",
"z#	c #4A7BAE",
"A#	c #4A7BAF",
"B#	c #4B7BA8",
"C#	c #4D7DA8",
"D#	c #4E7BA4",
"E#	c #567FA1",
"F#	c #D4CEB7",
"G#	c #DCCEA6",
"H#	c #DAC491",
"I#	c #E1C291",
"J#	c #DCBF8D",
"K#	c #C4B488",
"L#	c #BCAE80",
"M#	c #B5A87F",
"N#	c #B7A379",
"O#	c #AB9774",
"P#	c #546670",
"Q#	c #2E5372",
"R#	c #284D6B",
"S#	c #1F425D",
"T#	c #33485C",
"U#	c #535457",
"V#	c #303129",
"W#	c #27282A",
"X#	c #272728",
"Y#	c #494946",
"Z#	c #656561",
"`#	c #A8A8A9",
" $	c #BEBEBB",
".$	c #7A7A7A",
"+$	c #686869",
"@$	c #3B3B3C",
"#$	c #2A5B89",
"$$	c #38699E",
"%$	c #3F70A4",
"&$	c #4475A8",
"*$	c #4677A8",
"=$	c #4879AB",
"-$	c #4A79A3",
";$	c #4A779E",
">$	c #5E829E",
",$	c #DFD4B7",
"'$	c #E9DFB5",
")$	c #DFC792",
"!$	c #D9C28D",
"~$	c #C3BB86",
"{$	c #B8AE7F",
"]$	c #BBAB7F",
"^$	c #BCAE79",
"/$	c #AC9C72",
"($	c #546472",
"_$	c #2E5472",
":$	c #294E6E",
"<$	c #254A68",
"[$	c #204360",
"}$	c #1F3E57",
"|$	c #253C4F",
"1$	c #727475",
"2$	c #3F3F3F",
"3$	c #222323",
"4$	c #2B2B2B",
"5$	c #4E4E52",
"6$	c #6A6A65",
"7$	c #707072",
"8$	c #71716D",
"9$	c #5D5D65",
"0$	c #575756",
"a$	c #484844",
"b$	c #020202",
"c$	c #234F79",
"d$	c #336497",
"e$	c #3A6B9E",
"f$	c #3F6EA3",
"g$	c #4372A4",
"h$	c #4474A4",
"i$	c #44729C",
"j$	c #46729B",
"k$	c #477299",
"l$	c #B8BBA4",
"m$	c #DED4A8",
"n$	c #E8E2B5",
"o$	c #E3D39C",
"p$	c #DEC58D",
"q$	c #C0BC86",
"r$	c #A3AB7F",
"s$	c #ABA87D",
"t$	c #AF9E72",
"u$	c #A19970",
"v$	c #3B566E",
"w$	c #2A506E",
"x$	c #284B69",
"y$	c #254663",
"z$	c #203F5D",
"A$	c #203A52",
"B$	c #364956",
"C$	c #A0A1A0",
"D$	c #787876",
"E$	c #363637",
"F$	c #212125",
"G$	c #2F2F2D",
"H$	c #4D4D4E",
"I$	c #636362",
"J$	c #5C5C5D",
"K$	c #464649",
"L$	c #272726",
"M$	c #1A3B5A",
"N$	c #2E5F8F",
"O$	c #366699",
"P$	c #3C699C",
"Q$	c #3F6D9E",
"R$	c #3F6EA0",
"S$	c #406E99",
"T$	c #406B96",
"U$	c #446991",
"V$	c #CCC5A4",
"W$	c #D9CDA0",
"X$	c #DAD39E",
"Y$	c #DFD39C",
"Z$	c #D1C38D",
"`$	c #B5AF80",
" %	c #A3A97B",
".%	c #9C9E79",
"+%	c #9E9972",
"@%	c #99946B",
"#%	c #3B5769",
"$%	c #294B66",
"%%	c #264763",
"&%	c #25405B",
"*%	c #203B55",
"=%	c #324655",
"-%	c #65686F",
";%	c #9A9A98",
">%	c #BABABD",
",%	c #959592",
"'%	c #5B5B5B",
")%	c #2E2E2D",
"!%	c #39393B",
"~%	c #4A4A49",
"{%	c #454543",
"]%	c #070707",
"^%	c #295685",
"/%	c #335F91",
"(%	c #376394",
"_%	c #3B6699",
":%	c #3C6899",
"<%	c #3C6892",
"[%	c #3F6891",
"}%	c #3F668D",
"|%	c #869292",
"1%	c #DDCE9C",
"2%	c #E4D59E",
"3%	c #DCD199",
"4%	c #CDC48F",
"5%	c #B7B282",
"6%	c #9EA377",
"7%	c #919772",
"8%	c #8D9275",
"9%	c #828472",
"0%	c #2E4D66",
"a%	c #2C475F",
"b%	c #44505B",
"c%	c #243C53",
"d%	c #203A4D",
"e%	c #5E686D",
"f%	c #818182",
"g%	c #838380",
"h%	c #B7B7B8",
"i%	c #BABABB",
"j%	c #AEAEAC",
"k%	c #8C8C8D",
"l%	c #6A6A69",
"m%	c #565659",
"n%	c #484847",
"o%	c #434342",
"p%	c #121212",
"q%	c #1F4168",
"r%	c #2C598A",
"s%	c #315E8D",
"t%	c #355F8F",
"u%	c #386392",
"v%	c #38638B",
"w%	c #3B638B",
"x%	c #3A6188",
"y%	c #5F7B8D",
"z%	c #F0E4B1",
"A%	c #F7DEA1",
"B%	c #E6D499",
"C%	c #C2BB8A",
"D%	c #BCB580",
"E%	c #A4A075",
"F%	c #7B866B",
"G%	c #4D636E",
"H%	c #334E66",
"I%	c #3F515F",
"J%	c #7D7B68",
"K%	c #696861",
"L%	c #243B52",
"M%	c #203A4C",
"N%	c #666F75",
"O%	c #B2B2B3",
"P%	c #868680",
"Q%	c #B7B7BB",
"R%	c #B5B5B5",
"S%	c #A3A3A8",
"T%	c #8E8E8F",
"U%	c #767672",
"V%	c #4D4D4D",
"W%	c #282828",
"X%	c #313132",
"Y%	c #26517F",
"Z%	c #2A5786",
"`%	c #2D5C8A",
" &	c #315E8B",
".&	c #335E88",
"+&	c #355F88",
"@&	c #355F86",
"#&	c #436482",
"$&	c #E9E8CC",
"%&	c #F8E6AC",
"&&	c #DFC994",
"*&	c #C0B784",
"=&	c #B7AE7D",
"-&	c #A39C70",
";&	c #5F6B66",
">&	c #264764",
",&	c #26445F",
"'&	c #5C5F54",
")&	c #797561",
"!&	c #2E4459",
"~&	c #1F3C53",
"{&	c #203B52",
"]&	c #354956",
"^&	c #BBBCBC",
"/&	c #D8D8D6",
"(&	c #B9B9BE",
"_&	c #AEAEAB",
":&	c #98989F",
"<&	c #858583",
"[&	c #686864",
"}&	c #3F3F44",
"|&	c #2F2F30",
"1&	c #202020",
"2&	c #1B3758",
"3&	c #264E7B",
"4&	c #285482",
"5&	c #2A5682",
"6&	c #2C5780",
"7&	c #2D5782",
"8&	c #2E577F",
"9&	c #2E5679",
"0&	c #A1AB92",
"a&	c #F8E9A1",
"b&	c #E4CA91",
"c&	c #C9B886",
"d&	c #B8A97B",
"e&	c #79756D",
"f&	c #314B63",
"g&	c #21445F",
"h&	c #2D465F",
"i&	c #66664E",
"j&	c #3F4B54",
"k&	c #203D57",
"l&	c #243C55",
"m&	c #203949",
"n&	c #737B80",
"o&	c #D1D1CF",
"p&	c #E5E5E2",
"q&	c #BFBFBD",
"r&	c #98989C",
"s&	c #7C7C7B",
"t&	c #5E5E60",
"u&	c #454547",
"v&	c #313131",
"w&	c #040404",
"x&	c #223F64",
"y&	c #264B77",
"z&	c #254E7B",
"A&	c #284E77",
"B&	c #284E75",
"C&	c #295074",
"D&	c #294E74",
"E&	c #53687B",
"F&	c #CDBC88",
"G&	c #CFB57F",
"H&	c #C4A07F",
"I&	c #796B69",
"J&	c #2C465F",
"K&	c #214363",
"L&	c #204069",
"M&	c #1E3F63",
"N&	c #294057",
"O&	c #213F57",
"P&	c #1F3C56",
"Q&	c #1F3B54",
"R&	c #1E3B4E",
"S&	c #4A585E",
"T&	c #A0A09F",
"U&	c #B5B5B6",
"V&	c #B8B8BD",
"W&	c #A5A5A5",
"X&	c #7F7F85",
"Y&	c #5E5E5D",
"Z&	c #434347",
"`&	c #101010",
" *	c #0C151F",
".*	c #244164",
"+*	c #26466B",
"@*	c #26476D",
"#*	c #264A6B",
"$*	c #264A6D",
"%*	c #214A79",
"&*	c #204D84",
"**	c #264E7F",
"=*	c #2E4E72",
"-*	c #2D4764",
";*	c #21405F",
">*	c #203F66",
",*	c #1E3F6D",
"'*	c #1E3F68",
")*	c #1E3F59",
"!*	c #203F57",
"~*	c #203F56",
"{*	c #5F676F",
"]*	c #ADADAB",
"^*	c #B2B2B1",
"/*	c #888886",
"(*	c #737375",
"_*	c #656565",
":*	c #40403E",
"<*	c #0E0E0E",
"[*	c #0E1823",
"}*	c #233A58",
"|*	c #253F5F",
"1*	c #25446B",
"2*	c #1E4479",
"3*	c #1E4477",
"4*	c #1E4475",
"5*	c #1E4072",
"6*	c #1E3F70",
"7*	c #1E3F6B",
"8*	c #203F5F",
"9*	c #213F59",
"0*	c #1F3E56",
"a*	c #1F3E55",
"b*	c #284156",
"c*	c #7E8083",
"d*	c #BDBDBC",
"e*	c #A6A6A8",
"f*	c #616164",
"g*	c #50504F",
"h*	c #161616",
"i*	c #0B121C",
"j*	c #203552",
"k*	c #213D5F",
"l*	c #203D68",
"m*	c #203F6B",
"n*	c #1E3F69",
"o*	c #1E3F66",
"p*	c #203F5E",
"q*	c #203F59",
"r*	c #1E3F5F",
"s*	c #1E3F5C",
"t*	c #203F5B",
"u*	c #1F3E58",
"v*	c #354E60",
"w*	c #B4B4B6",
"x*	c #C1C1BF",
"y*	c #919194",
"z*	c #434343",
"A*	c #242424",
"B*	c #162A42",
"C*	c #213F63",
"D*	c #203D63",
"E*	c #203D61",
"F*	c #1E3D61",
"G*	c #203D5E",
"H*	c #203D54",
"I*	c #203D56",
"J*	c #1E4064",
"K*	c #1D3E57",
"L*	c #35434D",
"M*	c #DFDFDE",
"N*	c #CDCDCA",
"O*	c #81817E",
"P*	c #363639",
"Q*	c #0B0B0B",
"R*	c #091019",
"S*	c #172C46",
"T*	c #1F3E60",
"U*	c #1E3D5F",
"V*	c #203C59",
"W*	c #203C54",
"X*	c #1E3D59",
"Y*	c #15293A",
"Z*	c #060C12",
"`*	c #3B3B3B",
" =	c #B3B3B3",
".=	c #6E6E6E",
"+=	c #48484B",
"@=	c #030303",
"#=	c #060809",
"$=	c #16202F",
"%=	c #162C44",
"&=	c #1B3552",
"*=	c #1C395B",
"==	c #1D3E62",
"-=	c #1D3C60",
";=	c #1C3955",
">=	c #1A3348",
",=	c #152838",
"'=	c #0D1924",
")=	c #020406",
"!=	c #676766",
"~=	c #8F8F8C",
"{=	c #6A6A67",
"]=	c #0A0A0A",
"^=	c #1D1D1E",
"/=	c #838386",
"(=	c #878785",
"_=	c #474747",
":=	c #101011",
"<=	c #404041",
"[=	c #848484",
"}=	c #060606",
"|=	c #5B5B5E",
"1=	c #7A7A76",
"2=	c #525251",
"3=	c #19191A",
"4=	c #656566",
"5=	c #656562",
"6=	c #323234",
"7=	c #050505",
"8=	c #616162",
"9=	c #51514D",
"0=	c #222223",
"a=	c #353535",
"                                                                                                ",
"                                                                                                ",
"                                                                                                ",
"                                                                                                ",
"                                                                                                ",
"                                                                                                ",
"                                                                                                ",
"                                      . + @ # $ % & *                                           ",
"                                = - ; > , ' ) ! ~ { ] ^ / (                                     ",
"                            _ : < [ } | 1 2 3 4 5 6 7 8 9 0 a b                                 ",
"                          c d e f g h i j k l m n o p q r s t u v                               ",
"                        w x y z A B C D E F G H I J K L M N O P Q R S                           ",
"                      T U V W C X Y Z `  ...+.@.#.$.%.&.*.=.-.;.>.,.'.).                        ",
"                    !.~.{.].^./.(._.:.<.[.}.|.1.2.3.4.5.6.7.8.9.0.a.b.c.                        ",
"                  d.e.f.g.h.Y i.` j.k.l.[.m.n._.(.o.p.q.r.s.t.u.v.w.x.y.z.                      ",
"                  A.B.C.D.X Z E._.F.l./.G.H.I.E.J.j.K.L.M.N.O.P.Q.R.S.T.U.V.                    ",
"                W.X.Y.Z.`.H.I.k. +.+++@+X  +_.` #+F.$+%+&+*+=+-+;+>+,+'+)+!+~+                  ",
"                {+]+^+/+(+_+:+<+[+ +/.E..+j._.}+_.|+1+2+3+4+5+6+7+8+9+0+a+b+c+                  ",
"                d+e+f+g+h+i+j+k+l+m+n+o+p+q+r+s+t+u+v+w+x+y+z+A+B+C+D+E+F+G+H+~+                ",
"              I+A.J+K+L+M+N+O+P+Q+R+S+T+U+V+W+X+Y+Z+`+ @.@+@@@#@$@%@&@*@=@-@;@>@~+              ",
"              ,@'@)@!@~@{@]@^@/@(@_@:@<@[@}@|@1@2@3@4@5@6@7@8@9@0@a@b@c@d@e@f@g@h@i@            ",
"              j@k@l@m@n@o@L+p@q@r@s@t@u@v@w@x@y@z@A@B@C@D@E@F@G@H@I@J@K@L@M@N@O@P@Q@c+          ",
"              R@S@T@U@V@n@W@X@Y@Z@`@ #.#+#@###$#%#&#*#=#-#;#>#,#'#)#!#~#{#]#^#/#(#_#:#<#        ",
"              [#}#k@|#1#B.2#3#4#5#6#7#8#9#0#a#b#c#d#e#f#g#h#i#j#k#l#m#n#o#p#q#r#s#s#t#u#~+      ",
"              v#w#x#y#z#A#B#C#D#E#F#G#H#I#J#K#L#M#N#O#P#Q#R#,#S#T#U#V#W#X#Y#Z#`# $.$+$@$~+~+    ",
"              #$$$%$&$*$=$-$;$;$>$,$'$)$!$~${$]$^$/$($_$:$<$[$}$|$1$2$3$4$5$6$7$8$9$0$a$b$~+    ",
"              c$d$e$f$g$h$i$j$k$l$m$n$o$p$q$r$s$t$u$v$w$x$y$z$A$B$C$D$E$F$G$H$I$J$Q@K$L$~+~+    ",
"              M$N$O$P$Q$R$S$T$U$V$W$X$Y$Z$`$ %.%+%@%#%$%%%&%*%=%-%;%>%,%'%h@)%!%~%2${%]%~+~+    ",
"                ^%/%(%_%:%<%[%}%|%1%2%3%4%5%6%7%8%9%0%a%b%c%d%e%f%g%h%i%j%k%l%m%n%o%p%~+~+~+    ",
"                q%r%s%t%u%v%w%x%y%z%A%B%C%D%E%F%G%H%I%J%K%L%M%N%O%P%Q%R%S%T%U%V%W%X%<#~+~+~+    ",
"                  Y%Z%`% &.&+&@&#&$&%&&&*&=&-&;&>&,&'&)&!&~&{&]&^&/&(&_&:&<&[&}&|&1&~+~+~+      ",
"                  2&3&4&5&6&7&8&9&0&a&b&c&d&e&f&g&h&i&j&k&l&{&m&n&o&p&q&r&s&t&u&v&w&~+~+~+      ",
"                    x&y&z&A&B&C&D&E&F&G&H&I&J&K&L&M&N&O&k&P&Q&R&S&T&U&V&W&X&Y&Z&`&~+~+~+        ",
"                     *.*+*@*#*$*%*&***=*-*;*>*,*'*)*!*O&~*P&}$A${*]*^*/*(*_*:*<*~+~+~+~+        ",
"                      [*}*|*|*1*2*2*3*4*5*6*7*8*9*9*O&O&!*0*a*b*c*d*e*f*g*h*b$~+~+~+~+          ",
"                        i*j*k*l*m*7*7*n*o*p*q*r*q*O&q*s*t*u*a*v*w*x*y*z*A*~+~+~+~+~+            ",
"                          ~+B*C*C*D*E*F*F*G*H*I*!*O&r*J*q*u*K*L*M*N*O*P*Q*~+~+~+~+              ",
"                            ~+R*S*T*E*E*F*F*U*V*W*H*I*X*0*Y*Z*`* =R%.=+=@=~+~+~+~+              ",
"                              ~+~+#=$=%=&=*===-=;=>=,='=)=~+w&!=~={=!%]=~+~+~+~+                ",
"                                  ~+~+~+~+~+~+~+~+~+~+~+~+~+^=/=(=_=:=~+~+~+~+                  ",
"                                    ~+~+~+~+~+~+~+~+~+~+~+~+<=[=8$4$~+~+~+~+                    ",
"                                          ~+~+~+~+~+~+~+~+}=|=1=2=3=~+~+~+                      ",
"                                                            4=5=6=7=~+~+                        ",
"                                                            8=9=0=                              ",
"                                                              a=                                ",
"                                                                                                ",
"                                                                                                ",
"                                                                                                "};
